<mxfile host="app.diagrams.net" modified="2023-07-04T07:19:22.982Z" agent="Mozilla/5.0 (Windows NT 10.0; Win64; x64) AppleWebKit/537.36 (KHTML, like Gecko) Chrome/98.0.4758.102 Safari/537.36" version="21.5.2" etag="irr62T9Ez_pGRvap5ROc" type="github">
  <diagram name="Page-1" id="6ftZEJZ6w3Um4UO4siSf">
    <mxGraphModel>
      <root>
        <mxCell id="0" />
        <mxCell id="1" parent="0" />
      </root>
    </mxGraphModel>
  </diagram>
</mxfile>
